<svg width="683" height="683" viewBox="0 0 683 683" fill="none" xmlns="http://www.w3.org/2000/svg">
<g clip-path="url(#clip0_270_17)">
<path d="M333.226 4.98899C290.942 27.556 260.282 98.7902 269.97 151.56C278.746 198.86 305.074 240.347 335.848 255.278L341.204 257.899L346.675 255.278C377.334 240.347 403.663 198.86 412.439 151.56C422.126 98.5622 391.239 27.2141 349.069 4.98899C344.852 2.82347 341.204 0.999873 341.09 0.999873C340.862 0.999873 337.329 2.82347 333.226 4.98899Z" fill="url(#paint0_linear_270_17)"/>
<path d="M131.491 176.065C114.965 178.801 104.137 182.106 93.8793 187.577C80.6582 194.529 80.8861 193.959 81.684 208.776C82.9377 236.244 96.5007 265.421 119.638 290.496C145.168 318.192 166.481 330.387 203.181 338.023C215.034 340.417 220.733 340.987 235.778 340.987C263.132 341.101 282.393 336.542 298.92 325.828L305.872 321.269V310.669C305.872 274.539 280.912 232.483 241.249 201.824C233.84 196.011 218.568 188.375 206.714 184.499C186.997 178.117 176.169 176.293 154.286 175.951C143.344 175.723 133.087 175.723 131.491 176.065Z" fill="url(#paint1_linear_270_17)"/>
<path d="M511.597 176.065C483.331 180.396 455.863 190.426 441.16 201.824C401.497 232.483 376.537 274.539 376.537 310.669V321.269L383.489 325.828C400.015 336.542 419.277 341.101 446.631 340.987C461.676 340.987 467.374 340.417 479.228 338.023C515.928 330.387 537.241 318.192 562.771 290.496C586.022 265.193 599.585 236.016 600.725 208.434L601.295 195.327L595.71 191.566C588.644 186.893 576.22 181.65 564.937 178.687C557.984 176.863 551.602 176.293 535.531 175.951C524.248 175.723 513.534 175.837 511.597 176.065Z" fill="url(#paint2_linear_270_17)"/>
<path d="M331.744 287.988C329.921 289.128 328.097 291.636 327.413 293.915C326.616 296.537 326.388 345.66 326.616 437.865L326.957 577.94L330.149 580.562C335.961 585.69 346.447 585.69 352.26 580.562L355.451 577.94L355.793 437.865C356.021 345.318 355.793 296.537 354.995 293.915C354.311 291.408 352.488 289.128 350.436 287.874C346.105 285.367 335.961 285.367 331.744 287.988Z" fill="url(#paint3_linear_270_17)"/>
<path d="M135.48 362.414C116.788 364.238 100.604 369.595 86.5848 378.485L81 382.132L81.6838 395.239C82.5956 417.008 89.89 436.498 105.733 459.749C113.711 471.488 135.252 493.827 146.308 501.578C183.007 527.564 242.616 535.656 283.419 520.269C290.827 517.534 293.221 516.166 301.769 510.582L306.214 507.732L305.53 493.941C304.618 475.135 300.287 461.459 288.89 441.627C274.187 415.983 248.429 390.566 225.406 378.941C208.538 370.279 185.971 364.352 162.948 362.301C149.043 361.047 149.955 361.047 135.48 362.414Z" fill="url(#paint4_linear_270_17)"/>
<path d="M509.887 362.984C492.905 366.175 487.32 367.543 477.974 370.507C456.547 377.459 441.958 386.235 424.292 403.103C402.751 423.505 388.162 446.414 379.956 472.286C378.132 477.871 377.221 484.367 376.879 493.941L376.195 507.732L380.64 510.581C389.188 516.166 391.581 517.534 398.99 520.269C439.793 535.656 499.629 527.45 536.101 501.577C546.473 494.169 566.419 474.11 574.739 462.712C583.857 450.175 593.317 431.369 597.192 418.604C599.357 411.309 600.269 404.813 600.725 395.239L601.409 382.132L595.824 378.485C587.276 373.128 576.334 368.341 566.305 365.606C558.782 363.668 553.198 363.098 534.962 362.87C522.766 362.642 511.483 362.756 509.887 362.984Z" fill="url(#paint5_linear_270_17)"/>
<path d="M225.162 575.394L458.298 574.268" stroke="#16A34A" stroke-width="25" stroke-linecap="round"/>
<path d="M267.959 622.697H414.374" stroke="#16A34A" stroke-width="25" stroke-linecap="round"/>
<path d="M306.252 670H376.081" stroke="#16A34A" stroke-width="25" stroke-linecap="round"/>
</g>
<defs>
<linearGradient id="paint0_linear_270_17" x1="341.2" y1="257.899" x2="341.2" y2="0.999878" gradientUnits="userSpaceOnUse">
<stop stop-color="#16A34A"/>
<stop offset="1" stop-color="#86EFAC"/>
</linearGradient>
<linearGradient id="paint1_linear_270_17" x1="193.624" y1="340.989" x2="193.624" y2="175.792" gradientUnits="userSpaceOnUse">
<stop stop-color="#16A34A"/>
<stop offset="1" stop-color="#86EFAC"/>
</linearGradient>
<linearGradient id="paint2_linear_270_17" x1="488.916" y1="340.989" x2="488.916" y2="175.827" gradientUnits="userSpaceOnUse">
<stop stop-color="#16A34A"/>
<stop offset="1" stop-color="#86EFAC"/>
</linearGradient>
<linearGradient id="paint3_linear_270_17" x1="341.204" y1="584.408" x2="341.204" y2="286.008" gradientUnits="userSpaceOnUse">
<stop stop-color="#16A34A"/>
<stop offset="1" stop-color="#86EFAC"/>
</linearGradient>
<linearGradient id="paint4_linear_270_17" x1="193.607" y1="528.041" x2="193.607" y2="361.374" gradientUnits="userSpaceOnUse">
<stop stop-color="#16A34A"/>
<stop offset="1" stop-color="#86EFAC"/>
</linearGradient>
<linearGradient id="paint5_linear_270_17" x1="488.802" y1="528.015" x2="488.802" y2="362.746" gradientUnits="userSpaceOnUse">
<stop stop-color="#16A34A"/>
<stop offset="1" stop-color="#86EFAC"/>
</linearGradient>
<clipPath id="clip0_270_17">
<rect width="682.667" height="682.667" fill="white"/>
</clipPath>
</defs>
</svg>
